<?xml version="1.0" encoding="utf-8"?>
<!-- Generator: Adobe Illustrator 16.0.0, SVG Export Plug-In . SVG Version: 6.00 Build 0)  -->
<!DOCTYPE svg PUBLIC "-//W3C//DTD SVG 1.1//EN" "http://www.w3.org/Graphics/SVG/1.1/DTD/svg11.dtd">
<svg version="1.1" id="katman_1" xmlns="http://www.w3.org/2000/svg" xmlns:xlink="http://www.w3.org/1999/xlink" x="0px" y="0px"
	 width="676.565px" height="50.944px" viewBox="0 0 676.565 50.944" enable-background="new 0 0 676.565 50.944"
	 xml:space="preserve">
<g>
	<rect y="11.898" fill="#26A9E1" width="8.631" height="39.046"/>
	<rect x="12.846" y="6.172" fill="#26A9E1" width="8.63" height="44.772"/>
	<rect x="25.691" y="30.64" fill="#26A9E1" width="8.631" height="20.305"/>
	<rect x="38.537" y="18.406" fill="#26A9E1" width="8.63" height="32.539"/>
	<rect x="51.382" y="36.757" fill="#26A9E1" width="8.631" height="14.188"/>
	<rect x="115.61" y="25.234" fill="#26A9E1" width="8.63" height="25.71"/>
	<rect x="102.765" y="21.463" fill="#26A9E1" width="8.631" height="29.481"/>
	<rect x="89.919" y="37.574" fill="#26A9E1" width="8.63" height="13.37"/>
	<rect x="77.074" y="29.519" fill="#26A9E1" width="8.63" height="21.426"/>
	<rect x="64.228" y="41.603" fill="#26A9E1" width="8.63" height="9.342"/>
	<rect x="128.455" y="19.153" fill="#26A9E1" width="8.631" height="31.791"/>
	<rect x="141.301" fill="#26A9E1" width="8.63" height="50.944"/>
	<rect x="154.146" y="28.729" fill="#26A9E1" width="8.631" height="22.215"/>
	<rect x="192.683" y="30.011" fill="#26A9E1" width="8.63" height="20.934"/>
	<rect x="179.837" y="17.399" fill="#26A9E1" width="8.631" height="33.545"/>
	<rect x="166.992" y="36.317" fill="#26A9E1" width="8.63" height="14.627"/>
	<rect x="244.065" y="25.234" fill="#26A9E1" width="8.63" height="25.71"/>
	<rect x="231.22" y="21.463" fill="#26A9E1" width="8.63" height="29.481"/>
	<rect x="218.374" y="37.574" fill="#26A9E1" width="8.63" height="13.37"/>
	<rect x="205.528" y="29.519" fill="#26A9E1" width="8.631" height="21.426"/>
	<rect x="256.91" y="19.153" fill="#26A9E1" width="8.631" height="31.791"/>
	<rect x="282.601" y="37.574" fill="#26A9E1" width="8.631" height="13.37"/>
	<rect x="308.292" y="18.235" fill="#26A9E1" width="8.631" height="32.709"/>
	<rect x="321.138" y="13.438" fill="#26A9E1" width="8.631" height="37.506"/>
	<rect x="333.984" y="33.935" fill="#26A9E1" width="8.631" height="17.01"/>
	<rect x="346.831" y="23.686" fill="#26A9E1" width="8.631" height="27.258"/>
	<rect x="295.447" y="10.499" fill="#26A9E1" width="8.63" height="40.445"/>
	<rect x="359.676" y="32.141" fill="#26A9E1" width="8.631" height="18.804"/>
	<rect x="398.216" y="38.562" fill="#26A9E1" width="8.631" height="12.382"/>
	<rect x="423.91" y="28.559" fill="#26A9E1" width="8.632" height="22.386"/>
	<rect x="269.756" y="32.141" fill="#26A9E1" width="8.631" height="18.804"/>
	<rect x="372.526" y="13.438" fill="#26A9E1" width="8.63" height="37.506"/>
	<rect x="385.371" y="33.935" fill="#26A9E1" width="8.632" height="17.01"/>
	<rect x="411.065" y="23.686" fill="#26A9E1" width="8.63" height="27.258"/>
	<rect x="436.701" y="30.011" fill="#26A9E1" width="8.631" height="20.934"/>
	<rect x="488.085" y="25.234" fill="#26A9E1" width="8.631" height="25.71"/>
	<rect x="475.24" y="21.463" fill="#26A9E1" width="8.63" height="29.481"/>
	<rect x="462.393" y="37.574" fill="#26A9E1" width="8.63" height="13.37"/>
	<rect x="449.546" y="29.519" fill="#26A9E1" width="8.632" height="21.426"/>
	<rect x="500.93" y="19.153" fill="#26A9E1" width="8.632" height="31.791"/>
	<rect x="526.623" y="37.574" fill="#26A9E1" width="8.632" height="13.37"/>
	<rect x="552.315" y="18.235" fill="#26A9E1" width="8.632" height="32.709"/>
	<rect x="565.162" y="13.438" fill="#26A9E1" width="8.631" height="37.506"/>
	<rect x="578.007" y="33.935" fill="#26A9E1" width="8.631" height="17.01"/>
	<rect x="590.854" y="23.686" fill="#26A9E1" width="8.631" height="27.258"/>
	<rect x="539.469" y="10.499" fill="#26A9E1" width="8.631" height="40.445"/>
	<rect x="603.7" y="32.141" fill="#26A9E1" width="8.631" height="18.804"/>
	<rect x="642.24" y="38.562" fill="#26A9E1" width="8.631" height="12.382"/>
	<rect x="667.933" y="28.559" fill="#26A9E1" width="8.632" height="22.386"/>
	<rect x="513.777" y="32.141" fill="#26A9E1" width="8.632" height="18.804"/>
	<rect x="616.549" y="13.438" fill="#26A9E1" width="8.63" height="37.506"/>
	<rect x="629.394" y="33.935" fill="#26A9E1" width="8.632" height="17.01"/>
	<rect x="655.088" y="23.686" fill="#26A9E1" width="8.63" height="27.258"/>
</g>
<g>
</g>
<g>
</g>
<g>
</g>
<g>
</g>
<g>
</g>
<g>
</g>
</svg>
