<?xml version="1.0" encoding="utf-8"?>
<!-- Generator: Adobe Illustrator 16.0.0, SVG Export Plug-In . SVG Version: 6.00 Build 0)  -->
<!DOCTYPE svg PUBLIC "-//W3C//DTD SVG 1.1//EN" "http://www.w3.org/Graphics/SVG/1.1/DTD/svg11.dtd">
<svg version="1.1" id="katman_1" xmlns="http://www.w3.org/2000/svg" xmlns:xlink="http://www.w3.org/1999/xlink" x="0px" y="0px"
	 width="120.383px" height="21.328px" viewBox="0 0 120.383 21.328" enable-background="new 0 0 120.383 21.328"
	 xml:space="preserve">
<g>
	<g opacity="0.9">
		<path fill="#355C68" d="M45.314,10.659c0,0.989-0.17,1.911-0.512,2.765c-0.341,0.854-0.822,1.594-1.443,2.225
			c-0.62,0.629-1.369,1.123-2.243,1.479c-0.875,0.356-1.844,0.536-2.91,0.536s-2.038-0.18-2.915-0.536s-1.628-0.851-2.251-1.479
			c-0.624-0.631-1.107-1.371-1.448-2.225c-0.342-0.854-0.512-1.773-0.512-2.765c0-0.99,0.17-1.912,0.512-2.764
			c0.341-0.853,0.824-1.592,1.448-2.219c0.623-0.626,1.374-1.119,2.251-1.477c0.877-0.357,1.849-0.536,2.915-0.536
			s2.035,0.18,2.91,0.541c0.874,0.36,1.623,0.854,2.243,1.48c0.621,0.626,1.102,1.367,1.443,2.219
			C45.144,8.757,45.314,9.675,45.314,10.659z M42.062,10.659c0-0.677-0.087-1.286-0.263-1.829c-0.175-0.542-0.428-1.001-0.757-1.377
			s-0.732-0.665-1.208-0.865c-0.478-0.2-1.02-0.301-1.627-0.301c-0.614,0-1.161,0.101-1.641,0.301
			c-0.48,0.201-0.885,0.489-1.213,0.865c-0.329,0.376-0.582,0.835-0.757,1.377c-0.176,0.542-0.263,1.152-0.263,1.829
			c0,0.684,0.087,1.297,0.263,1.839c0.175,0.542,0.428,1.001,0.757,1.377s0.733,0.663,1.213,0.859
			c0.479,0.197,1.026,0.298,1.641,0.298c0.607,0,1.149-0.101,1.627-0.298c0.476-0.196,0.879-0.483,1.208-0.859
			s0.582-0.835,0.757-1.377C41.975,11.956,42.062,11.342,42.062,10.659z"/>
		<path fill="#355C68" d="M50.016,14.975h5.078v2.539H46.84v-13.7h3.177L50.016,14.975L50.016,14.975z"/>
		<path fill="#355C68" d="M61.167,12.305v5.209H57.99v-5.209l-4.964-8.491h2.802c0.275,0,0.496,0.064,0.658,0.192
			C56.648,4.135,56.78,4.3,56.88,4.5l1.937,3.986c0.157,0.32,0.302,0.615,0.433,0.884c0.132,0.269,0.249,0.536,0.349,0.799
			c0.094-0.27,0.206-0.539,0.339-0.809c0.13-0.27,0.271-0.561,0.422-0.875L62.277,4.5c0.037-0.082,0.09-0.163,0.154-0.245
			c0.065-0.082,0.141-0.155,0.227-0.221c0.084-0.066,0.182-0.12,0.291-0.16s0.23-0.061,0.361-0.061h2.821L61.167,12.305z"/>
		<path fill="#355C68" d="M74.438,11.993c0.117,0.258,0.229,0.521,0.336,0.791c0.105-0.275,0.22-0.544,0.338-0.806
			c0.119-0.26,0.24-0.513,0.367-0.758l3.517-6.927c0.062-0.119,0.127-0.212,0.19-0.278c0.066-0.066,0.142-0.114,0.224-0.146
			c0.081-0.031,0.174-0.047,0.276-0.047s0.225,0,0.361,0h2.426v13.69h-2.801v-7.88c0-0.382,0.018-0.796,0.055-1.241L76.1,15.436
			c-0.115,0.22-0.266,0.385-0.457,0.498c-0.19,0.113-0.408,0.17-0.654,0.17h-0.432c-0.246,0-0.463-0.057-0.652-0.17
			c-0.192-0.113-0.344-0.278-0.457-0.498l-3.648-7.052c0.025,0.219,0.045,0.437,0.059,0.653c0.012,0.216,0.018,0.416,0.018,0.597
			v7.88h-2.801V3.823H69.5c0.137,0,0.258,0,0.361,0c0.103,0,0.195,0.016,0.277,0.047c0.082,0.032,0.153,0.08,0.221,0.146
			c0.066,0.066,0.131,0.159,0.192,0.278l3.525,6.956C74.201,11.489,74.322,11.736,74.438,11.993z"/>
		<path fill="#355C68" d="M87.906,12.934v4.58H84.73v-13.7h4.83c0.967,0,1.795,0.114,2.487,0.343
			c0.693,0.229,1.265,0.544,1.712,0.945s0.777,0.875,0.991,1.42c0.213,0.545,0.319,1.134,0.319,1.768c0,0.684-0.108,1.31-0.329,1.88
			c-0.22,0.57-0.556,1.059-1.007,1.467c-0.45,0.407-1.022,0.725-1.715,0.954c-0.693,0.229-1.514,0.343-2.459,0.343H87.906z
			 M87.906,10.537h1.654c0.83,0,1.424-0.198,1.789-0.592c0.362-0.395,0.545-0.946,0.545-1.655c0-0.313-0.047-0.599-0.143-0.855
			c-0.094-0.257-0.236-0.478-0.43-0.663c-0.189-0.185-0.432-0.328-0.723-0.428c-0.291-0.101-0.639-0.15-1.039-0.15h-1.656v4.343
			H87.906z"/>
		<path fill="#355C68" d="M110.248,10.659c0,0.989-0.172,1.911-0.514,2.765s-0.822,1.594-1.443,2.225
			c-0.62,0.629-1.367,1.123-2.242,1.479c-0.874,0.356-1.845,0.536-2.91,0.536c-1.063,0-2.035-0.18-2.914-0.536
			c-0.877-0.356-1.627-0.851-2.252-1.479c-0.625-0.631-1.105-1.371-1.447-2.225s-0.514-1.773-0.514-2.765
			c0-0.99,0.172-1.912,0.514-2.764c0.342-0.853,0.822-1.592,1.447-2.219c0.625-0.626,1.375-1.119,2.252-1.477
			c0.879-0.357,1.851-0.536,2.914-0.536c1.065,0,2.036,0.18,2.91,0.541c0.875,0.36,1.622,0.854,2.242,1.48
			c0.621,0.626,1.102,1.367,1.443,2.219C110.076,8.757,110.248,9.675,110.248,10.659z M106.994,10.659
			c0-0.677-0.09-1.286-0.264-1.829c-0.176-0.542-0.428-1.001-0.756-1.377c-0.33-0.376-0.732-0.665-1.209-0.865
			c-0.478-0.2-1.021-0.301-1.627-0.301c-0.613,0-1.16,0.101-1.642,0.301c-0.479,0.201-0.884,0.489-1.213,0.865
			c-0.33,0.376-0.582,0.835-0.757,1.377c-0.176,0.542-0.264,1.152-0.264,1.829c0,0.684,0.088,1.297,0.264,1.839
			c0.175,0.542,0.427,1.001,0.757,1.377c0.329,0.376,0.733,0.663,1.213,0.859c0.479,0.197,1.026,0.298,1.642,0.298
			c0.606,0,1.149-0.101,1.627-0.298c0.477-0.196,0.879-0.483,1.209-0.859c0.328-0.376,0.58-0.835,0.756-1.377
			C106.904,11.956,106.994,11.342,106.994,10.659z"/>
		<path fill="#355C68" d="M119.404,6.597c-0.094,0.151-0.191,0.264-0.295,0.339c-0.104,0.075-0.236,0.113-0.4,0.113
			c-0.145,0-0.3-0.045-0.465-0.136c-0.166-0.091-0.355-0.193-0.564-0.306s-0.449-0.215-0.719-0.306
			c-0.27-0.09-0.578-0.136-0.922-0.136c-0.598,0-1.039,0.127-1.331,0.381s-0.437,0.597-0.437,1.029c0,0.276,0.088,0.505,0.264,0.687
			c0.176,0.182,0.406,0.338,0.691,0.471c0.283,0.131,0.608,0.251,0.977,0.361c0.367,0.11,0.74,0.232,1.124,0.367
			c0.382,0.135,0.757,0.293,1.123,0.475s0.692,0.414,0.979,0.696c0.283,0.282,0.514,0.625,0.689,1.03
			c0.175,0.404,0.264,0.891,0.264,1.461c0,0.635-0.109,1.227-0.328,1.777c-0.221,0.552-0.539,1.033-0.955,1.442
			c-0.416,0.41-0.931,0.734-1.541,0.97c-0.611,0.234-1.306,0.353-2.082,0.353c-0.428,0-0.861-0.044-1.305-0.132
			c-0.441-0.088-0.869-0.211-1.283-0.371c-0.412-0.16-0.803-0.35-1.166-0.568c-0.363-0.22-0.68-0.465-0.949-0.734l0.94-1.483
			c0.068-0.112,0.166-0.204,0.292-0.272c0.125-0.068,0.26-0.104,0.404-0.104c0.188,0,0.377,0.06,0.566,0.181
			c0.192,0.117,0.41,0.25,0.649,0.395c0.241,0.145,0.521,0.275,0.832,0.395c0.313,0.119,0.685,0.178,1.108,0.178
			c0.578,0,1.025-0.127,1.347-0.379c0.319-0.254,0.479-0.656,0.479-1.209c0-0.319-0.088-0.58-0.265-0.781
			c-0.175-0.199-0.405-0.365-0.69-0.497c-0.287-0.132-0.61-0.248-0.975-0.349c-0.363-0.1-0.736-0.211-1.117-0.334
			c-0.383-0.121-0.757-0.271-1.119-0.451c-0.365-0.179-0.688-0.414-0.975-0.705c-0.284-0.292-0.516-0.655-0.689-1.091
			c-0.176-0.436-0.264-0.973-0.264-1.612c0-0.514,0.104-1.016,0.311-1.504c0.205-0.489,0.511-0.925,0.912-1.307
			c0.4-0.383,0.894-0.688,1.476-0.917c0.584-0.229,1.251-0.343,2.004-0.343c0.419,0,0.828,0.033,1.228,0.099
			c0.396,0.066,0.774,0.163,1.133,0.292c0.356,0.129,0.691,0.282,1,0.461c0.311,0.178,0.589,0.38,0.834,0.606L119.404,6.597z"/>
	</g>
	
		<path color-interpolation="sRGB" color-rendering="auto" image-rendering="auto" shape-rendering="auto" opacity="0.9" fill="#355C68" enable-background="new    " d="
		M3.143,4.639c-1.812,0.144-3.3,1.731-3.13,3.595c0.145,1.6,1.56,2.913,3.216,2.737c1.388-0.147,2.526-1.39,2.342-2.838
		c-0.15-1.175-1.224-2.142-2.464-1.944c-0.963,0.153-1.76,1.063-1.54,2.1c0.08,0.375,0.295,0.7,0.602,0.922
		c0.307,0.22,0.734,0.328,1.151,0.196C3.593,9.32,3.811,9.145,3.959,8.895c0.147-0.251,0.196-0.642-0.001-0.952
		c-0.16-0.25-0.306-0.3-0.535-0.338c-0.114-0.02-0.275-0.026-0.446,0.084C2.806,7.8,2.715,8.029,2.715,8.192
		C2.714,8.315,2.762,8.435,2.849,8.523C2.803,8.51,2.758,8.491,2.71,8.458C2.599,8.377,2.502,8.231,2.474,8.095
		C2.375,7.632,2.773,7.18,3.252,7.104C3.934,6.996,4.563,7.563,4.651,8.25c0.114,0.896-0.626,1.704-1.521,1.798
		c-1.11,0.118-2.094-0.794-2.194-1.899c-0.12-1.323,0.966-2.482,2.28-2.586C3.228,5.562,3.24,5.562,3.251,5.561h18.545
		c0.012,0.001,0.023,0.001,0.035,0.002c1.314,0.104,2.4,1.263,2.281,2.586c-0.101,1.105-1.084,2.017-2.195,1.899
		c-0.896-0.095-1.635-0.902-1.521-1.798c0.087-0.687,0.718-1.255,1.399-1.146c0.479,0.076,0.876,0.528,0.778,0.991
		c-0.029,0.136-0.125,0.282-0.236,0.362c-0.047,0.034-0.093,0.053-0.139,0.065c0.087-0.088,0.135-0.207,0.133-0.331
		c0-0.162-0.09-0.392-0.261-0.502c-0.171-0.111-0.331-0.104-0.446-0.085c-0.229,0.038-0.375,0.088-0.535,0.339
		c-0.197,0.31-0.149,0.7-0.001,0.951c0.147,0.25,0.365,0.425,0.639,0.512c0.417,0.132,0.844,0.024,1.151-0.197
		s0.522-0.547,0.603-0.922c0.219-1.036-0.577-1.946-1.541-2.1c-1.24-0.197-2.315,0.769-2.464,1.944
		c-0.185,1.448,0.954,2.691,2.343,2.839c1.655,0.175,3.07-1.137,3.215-2.738c0.169-1.864-1.318-3.452-3.13-3.595
		c-0.038-0.005-0.072-0.003-0.108-0.004H3.251C3.215,4.632,3.177,4.636,3.143,4.639L3.143,4.639z M1.396,0
		C1.14,0,0.933,0.207,0.933,0.463v0.928c0,0.123,0.049,0.24,0.136,0.328l1.854,1.854C3.01,3.66,3.128,3.709,3.251,3.709h18.545
		c0.123,0,0.241-0.049,0.328-0.136l1.855-1.854c0.086-0.087,0.136-0.205,0.136-0.328V0.463C24.115,0.207,23.908,0,23.652,0
		C23.651,0,1.396,0,1.396,0z M1.86,0.927h21.328v0.271l-1.583,1.583H3.443L1.86,1.199V0.927z M6.96,7.418
		c-0.256,0-0.464,0.208-0.464,0.463v12.982c0,0.256,0.208,0.464,0.464,0.464c0.092,0,0.181-0.027,0.257-0.078l2.638-1.759
		c0.126-0.084,0.204-0.225,0.206-0.377l0.145-8.442c0-0.003,0-0.005,0-0.008c0-0.304,0.933-0.312,0.927-0.008
		c0,0.003,0,0.006,0,0.008v7.418c0,0.257,0.208,0.464,0.464,0.464c0.092,0,0.181-0.027,0.258-0.077l2.781-1.854
		c0.129-0.087,0.207-0.23,0.207-0.388v-5.562c0-0.31,0.927-0.31,0.927,0V15.3c0,0.257,0.208,0.464,0.464,0.464
		c0.071,0,0.142-0.018,0.207-0.049l1.855-0.928c0.156-0.079,0.256-0.24,0.256-0.415V7.881c0-0.256-0.208-0.463-0.464-0.463H6.96
		L6.96,7.418L6.96,7.418z M7.424,8.345h10.2v5.741l-0.927,0.463v-3.886c0-1.545-2.782-1.545-2.782,0v5.315l-1.854,1.235v-6.552
		v0.008c0.027-1.551-2.782-1.559-2.782-0.008v-0.008l-0.14,8.198l-1.714,1.145L7.424,8.345L7.424,8.345z"/>
</g>
</svg>
