<?xml version="1.0" encoding="utf-8"?>
<!-- Generator: Adobe Illustrator 16.0.0, SVG Export Plug-In . SVG Version: 6.00 Build 0)  -->
<!DOCTYPE svg PUBLIC "-//W3C//DTD SVG 1.1//EN" "http://www.w3.org/Graphics/SVG/1.1/DTD/svg11.dtd">
<svg version="1.1" id="katman_1" xmlns="http://www.w3.org/2000/svg" xmlns:xlink="http://www.w3.org/1999/xlink" x="0px" y="0px"
	 width="38.461px" height="37.729px" viewBox="0 0 38.461 37.729" enable-background="new 0 0 38.461 37.729" xml:space="preserve">
<path fill="#282828" d="M30.262,4.835C27.217,1.838,23.225,0.34,19.23,0.34c-3.991,0-7.987,1.498-11.031,4.495
	c-6.092,5.994-6.092,15.711,0,21.706L19.23,37.389l11.032-10.852C36.354,20.546,36.354,10.827,30.262,4.835z"/>
<g>
	<ellipse opacity="0.1" fill="#2783F2" enable-background="new    " cx="19.23" cy="21.821" rx="7.979" ry="0.877"/>
	<path fill="#2783F2" d="M26.229,10.806h-0.092c-0.35,0-0.633,0.284-0.633,0.634v1.42c0,0.063,0.008,0.123,0.025,0.18h-0.871V8.298
		c0-0.03-0.004-0.061-0.008-0.09c0.004-0.025,0.008-0.05,0.008-0.075c0-0.792-2.32-1.435-5.181-1.435c-0.015,0-0.03,0-0.045,0
		c-0.016,0-0.031,0-0.045,0c-2.861,0-5.182,0.643-5.182,1.435c0,0.025,0.002,0.05,0.007,0.075c-0.004,0.029-0.007,0.06-0.007,0.09
		v4.742h-0.873c0.017-0.057,0.026-0.117,0.026-0.18v-1.42c0-0.35-0.284-0.634-0.634-0.634h-0.09c-0.351,0-0.635,0.284-0.635,0.634
		v1.42c0,0.337,0.262,0.611,0.593,0.632l0,0h0.005c0.012,0.001,0.024,0.002,0.037,0.002h0.09c0.012,0,0.024-0.001,0.037-0.002
		l1.443,0.089v1.154c-0.825,0.155-1.45,0.88-1.45,1.75c0,0.871,0.625,1.595,1.45,1.752v0.545h-0.211
		c-0.35,0-0.634,0.284-0.634,0.635v0.756c0,0.35,0.284,0.634,0.634,0.634h0.695v0.543c0,0.351,0.284,0.635,0.634,0.635h0.816
		c0.351,0,0.635-0.283,0.635-0.635v-0.543h2.659h2.658v0.543c0,0.351,0.283,0.635,0.635,0.635h0.816c0.35,0,0.633-0.283,0.633-0.635
		v-0.543h0.695c0.35,0,0.635-0.284,0.635-0.634v-0.756c0-0.35-0.283-0.635-0.635-0.635h-0.211v-0.545
		c0.826-0.157,1.449-0.881,1.449-1.752c0-0.87-0.623-1.594-1.449-1.75v-1.154l1.443-0.089c0.014,0.001,0.025,0.002,0.037,0.002h0.09
		c0.014,0,0.025-0.001,0.037-0.002h0.006l0,0c0.33-0.021,0.592-0.295,0.592-0.632v-1.42C26.864,11.091,26.579,10.806,26.229,10.806z
		 M14.522,17.301c-0.476,0-0.861-0.385-0.861-0.86c0-0.477,0.386-0.86,0.861-0.86c0.475,0,0.861,0.384,0.861,0.86
		S14.998,17.301,14.522,17.301z M22.573,18.178h-3.141H16.29c-0.217,0-0.393-0.176-0.393-0.393c0-0.218,0.176-0.393,0.393-0.393
		h3.143h3.141c0.217,0,0.393,0.175,0.393,0.393C22.967,18.001,22.79,18.178,22.573,18.178z M22.573,16.849h-3.141H16.29
		c-0.217,0-0.393-0.177-0.393-0.393c0-0.218,0.176-0.393,0.393-0.393h3.143h3.141c0.217,0,0.393,0.175,0.393,0.393
		C22.967,16.671,22.79,16.849,22.573,16.849z M22.573,15.519h-3.141H16.29c-0.217,0-0.393-0.176-0.393-0.393
		c0-0.216,0.176-0.392,0.393-0.392h3.143h3.141c0.217,0,0.393,0.176,0.393,0.392C22.965,15.343,22.79,15.519,22.573,15.519z
		 M19.432,13.555h-4.019c-0.351,0-0.634-0.284-0.634-0.634v-2.659c0-0.351,0.283-0.635,0.634-0.635h4.019h4.018
		c0.35,0,0.635,0.284,0.635,0.635v2.659c0,0.35-0.285,0.634-0.635,0.634H19.432z M25.202,16.441c0,0.477-0.385,0.86-0.861,0.86
		c-0.475,0-0.861-0.385-0.861-0.86c0-0.477,0.387-0.86,0.861-0.86C24.817,15.58,25.202,15.964,25.202,16.441z"/>
</g>
</svg>
