<?xml version="1.0" encoding="utf-8"?>
<!-- Generator: Adobe Illustrator 16.0.0, SVG Export Plug-In . SVG Version: 6.00 Build 0)  -->
<!DOCTYPE svg PUBLIC "-//W3C//DTD SVG 1.1//EN" "http://www.w3.org/Graphics/SVG/1.1/DTD/svg11.dtd">
<svg version="1.1" id="katman_1" xmlns="http://www.w3.org/2000/svg" xmlns:xlink="http://www.w3.org/1999/xlink" x="0px" y="0px"
	 width="38.461px" height="37.729px" viewBox="0 0 38.461 37.729" enable-background="new 0 0 38.461 37.729" xml:space="preserve">
<path fill="#282828" d="M30.39,4.835C27.346,1.838,23.353,0.34,19.359,0.34c-3.991,0-7.987,1.498-11.031,4.495
	c-6.092,5.994-6.092,15.711,0,21.706l11.031,10.848L30.39,26.537C36.482,20.546,36.482,10.827,30.39,4.835z"/>
<g>
	<g>
		<ellipse opacity="0.1" fill="#EF001D" enable-background="new    " cx="19.083" cy="22.754" rx="8.506" ry="0.936"/>
		<g>
			<g>
				<g>
					<path fill="#EF001D" d="M22.334,14.272h-3.128h-3.129c-0.126,0-0.229,0.102-0.229,0.229c0,0.126,0.103,0.229,0.229,0.229h3.129
						h3.128c0.127,0,0.23-0.103,0.23-0.229S22.461,14.272,22.334,14.272z"/>
					<path fill="#EF001D" d="M22.334,15.215h-3.128h-3.129c-0.126,0-0.229,0.103-0.229,0.229s0.103,0.229,0.229,0.229h3.129h3.128
						c0.127,0,0.23-0.103,0.23-0.229S22.461,15.215,22.334,15.215z"/>
					<path fill="#EF001D" d="M22.334,16.157h-3.128h-3.129c-0.126,0-0.229,0.102-0.229,0.23c0,0.127,0.103,0.229,0.229,0.229h3.129
						h3.128c0.127,0,0.23-0.102,0.23-0.229C22.565,16.26,22.461,16.157,22.334,16.157z"/>
					<path fill="#EF001D" d="M22.334,17.099h-3.128h-3.129c-0.126,0-0.229,0.103-0.229,0.229s0.103,0.23,0.229,0.23h3.129h3.128
						c0.127,0,0.23-0.103,0.23-0.23C22.565,17.201,22.461,17.099,22.334,17.099z"/>
					<path fill="#EF001D" d="M25.125,13.266c-0.093,0-0.183,0.011-0.273,0.032V8.42c0.041-0.001,0.08-0.001,0.117-0.003
						c0.409-0.01,0.763-0.02,0.863,0.079c0.02,0.018,0.039,0.052,0.056,0.109c-0.21,0.115-0.352,0.338-0.352,0.594v2.609
						c0,0.374,0.303,0.676,0.676,0.676h0.049c0.373,0,0.677-0.302,0.677-0.676v-2.61c0-0.3-0.195-0.554-0.467-0.643
						c-0.032-0.174-0.099-0.345-0.233-0.476c-0.276-0.269-0.677-0.259-1.282-0.243c-0.033,0-0.066,0.001-0.103,0.002V7.677
						c-0.001-0.373-0.303-0.676-0.677-0.676h-4.97h-4.971c-0.374,0-0.676,0.303-0.676,0.676V7.84
						c-0.034-0.001-0.068-0.002-0.101-0.002c-0.606-0.016-1.007-0.026-1.283,0.243c-0.135,0.131-0.201,0.303-0.233,0.476
						c-0.271,0.088-0.466,0.343-0.466,0.643v2.609c0,0.374,0.303,0.676,0.677,0.676H12.2c0.374,0,0.677-0.302,0.677-0.676V9.199
						c0-0.256-0.143-0.479-0.353-0.594c0.017-0.057,0.037-0.091,0.055-0.109c0.101-0.099,0.455-0.09,0.863-0.079
						c0.038,0.001,0.077,0.002,0.116,0.003v4.877c-0.089-0.021-0.18-0.032-0.272-0.032c-1.174,0-2.126,1.681-2.126,3.753
						c0,1.335,0.396,2.507,0.991,3.172v2.054c0,0.374,0.302,0.677,0.676,0.677h1.184c0.374,0,0.676-0.303,0.676-0.677v-1.644h4.518
						h4.518v1.644c0,0.374,0.303,0.677,0.677,0.677h1.184c0.373,0,0.677-0.303,0.677-0.677v-2.054
						c0.595-0.665,0.989-1.837,0.989-3.172C27.25,14.946,26.298,13.266,25.125,13.266z M12.961,17.317
						c-0.5,0-0.906-0.405-0.906-0.906c0-0.5,0.406-0.905,0.906-0.905c0.501,0,0.906,0.405,0.906,0.905S13.462,17.317,12.961,17.317z
						 M22.685,19.516h-3.479h-3.479c-0.18,0-0.326-0.146-0.326-0.327c0-0.18,0.146-0.326,0.326-0.326h3.479h3.479
						c0.179,0,0.325,0.146,0.325,0.326C23.011,19.369,22.864,19.516,22.685,19.516z M23.167,17.61c0,0.385-0.303,0.697-0.677,0.697
						h-3.284H15.92c-0.374,0-0.676-0.312-0.676-0.697v-3.316c0-0.385,0.302-0.698,0.676-0.698h3.286h3.284
						c0.374,0,0.677,0.312,0.677,0.698V17.61z M24.31,11.494c0,0.374-0.304,0.677-0.677,0.677h-4.427h-4.427
						c-0.374,0-0.676-0.302-0.676-0.677V8.788c0-0.374,0.302-0.676,0.676-0.676h4.427h4.427c0.374,0,0.677,0.303,0.677,0.676V11.494
						L24.31,11.494z M25.451,17.317c-0.501,0-0.905-0.405-0.905-0.906c0-0.5,0.404-0.905,0.905-0.905s0.906,0.405,0.906,0.905
						S25.952,17.317,25.451,17.317z"/>
				</g>
			</g>
		</g>
	</g>
</g>
</svg>
