<?xml version="1.0" encoding="utf-8"?>
<!-- Generator: Adobe Illustrator 16.0.0, SVG Export Plug-In . SVG Version: 6.00 Build 0)  -->
<!DOCTYPE svg PUBLIC "-//W3C//DTD SVG 1.1//EN" "http://www.w3.org/Graphics/SVG/1.1/DTD/svg11.dtd">
<svg version="1.1" id="katman_1" xmlns="http://www.w3.org/2000/svg" xmlns:xlink="http://www.w3.org/1999/xlink" x="0px" y="0px"
	 width="38.461px" height="37.729px" viewBox="0 0 38.461 37.729" enable-background="new 0 0 38.461 37.729" xml:space="preserve">
<path fill="#282828" d="M30.262,4.835C27.217,1.838,23.225,0.34,19.231,0.34c-3.992,0-7.988,1.498-11.031,4.495
	c-6.092,5.994-6.092,15.711,0,21.706l11.031,10.848l11.031-10.852C36.354,20.546,36.354,10.827,30.262,4.835z"/>
<g>
	<ellipse opacity="0.1" fill="#4FDB3B" enable-background="new    " cx="19.088" cy="22.036" rx="7.533" ry="0.829"/>
	<g>
		<g>
			<path fill="#4FDB3B" d="M26.455,17.448h-2.173v-0.784c0.963,0,1.813,0,2.133,0c0.363,0,0.322-0.41,0.272-0.604
				c-0.268-1.023-1.198-1.778-2.305-1.778c-0.034,0-0.067,0-0.101,0.002v-1.845l1.052-1.013c0.013,0.001,0.024,0.003,0.036,0.003
				h0.951c0.182,0,0.329-0.147,0.329-0.33V9.362c0-0.182-0.147-0.329-0.329-0.329H25.37c-0.182,0-0.328,0.146-0.328,0.329v1.643
				l-0.76,0.314V7.94h0.281c0.16,0,0.289-0.129,0.289-0.29V7.154c0-0.16-0.129-0.29-0.289-0.29h-5.06h-5.059
				c-0.16,0-0.29,0.13-0.29,0.29V7.65c0,0.16,0.13,0.29,0.29,0.29h0.281v3.379l-0.759-0.314V9.362c0-0.182-0.147-0.329-0.329-0.329
				h-0.951c-0.182,0-0.328,0.146-0.328,0.329v1.738c0,0.182,0.146,0.33,0.328,0.33h0.951c0.013,0,0.024-0.002,0.036-0.003
				l1.052,1.013v1.845c-0.033-0.002-0.065-0.002-0.1-0.002c-1.107,0-2.037,0.755-2.305,1.778c-0.051,0.192-0.092,0.604,0.271,0.604
				c0.319,0,1.17,0,2.133,0v0.784h-2.174c-0.249,0-0.45,0.202-0.45,0.452v2.228c0,0.25,0.201,0.452,0.45,0.452h1.632v1.005
				c0,0.331,0.268,0.599,0.598,0.599h0.771c0.332,0,0.6-0.268,0.6-0.599v-1.005h3.352h3.352v1.005c0,0.331,0.269,0.599,0.6,0.599
				h0.77c0.331,0,0.601-0.268,0.601-0.599v-1.005h1.63c0.249,0,0.451-0.202,0.451-0.452V17.9
				C26.906,17.65,26.704,17.448,26.455,17.448z M23.249,17.889c0,0.332-0.27,0.6-0.6,0.6h-3.145h-3.146
				c-0.331,0-0.599-0.268-0.599-0.6v-4.813c0-0.331,0.268-0.6,0.599-0.6h3.146h3.145c0.33,0,0.6,0.269,0.6,0.6V17.889z
				 M23.262,10.668c0,0.141-0.114,0.255-0.255,0.255h-3.504H16c-0.141,0-0.254-0.115-0.254-0.255v-2.23
				c0-0.14,0.113-0.254,0.254-0.254h3.504h3.504c0.141,0,0.255,0.114,0.255,0.254V10.668z"/>
			<path fill="#4FDB3B" d="M22.555,13.14h-3.052h-3.052c-0.111,0-0.2,0.089-0.2,0.199c0,0.111,0.089,0.199,0.2,0.199h3.052h3.052
				c0.11,0,0.2-0.088,0.2-0.199C22.755,13.229,22.666,13.14,22.555,13.14z"/>
			<path fill="#4FDB3B" d="M22.555,13.995h-3.052h-3.052c-0.111,0-0.2,0.09-0.2,0.199c0,0.111,0.089,0.2,0.2,0.2h3.052h3.052
				c0.11,0,0.2-0.088,0.2-0.2C22.755,14.085,22.666,13.995,22.555,13.995z"/>
			<path fill="#4FDB3B" d="M22.555,14.851h-3.052h-3.052c-0.111,0-0.2,0.09-0.2,0.2c0,0.11,0.089,0.199,0.2,0.199h3.052h3.052
				c0.11,0,0.2-0.089,0.2-0.199C22.755,14.941,22.666,14.851,22.555,14.851z"/>
			<path fill="#4FDB3B" d="M22.555,15.707h-3.052h-3.052c-0.111,0-0.2,0.09-0.2,0.199c0,0.11,0.089,0.201,0.2,0.201h3.052h3.052
				c0.11,0,0.2-0.091,0.2-0.201C22.755,15.797,22.666,15.707,22.555,15.707z"/>
			<path fill="#4FDB3B" d="M22.555,16.564h-3.052h-3.052c-0.111,0-0.2,0.089-0.2,0.199s0.089,0.2,0.2,0.2h3.052h3.052
				c0.11,0,0.2-0.09,0.2-0.2S22.666,16.564,22.555,16.564z"/>
			<path fill="#4FDB3B" d="M22.555,17.418h-3.052h-3.052c-0.111,0-0.2,0.091-0.2,0.2c0,0.11,0.089,0.199,0.2,0.199h3.052h3.052
				c0.11,0,0.2-0.089,0.2-0.199C22.755,17.509,22.666,17.418,22.555,17.418z"/>
		</g>
	</g>
</g>
</svg>
