<?xml version="1.0" encoding="UTF-8" standalone="no"?>
<!-- Created with Inkscape (http://www.inkscape.org/) -->

<svg
   xmlns:dc="http://purl.org/dc/elements/1.1/"
   xmlns:cc="http://creativecommons.org/ns#"
   xmlns:rdf="http://www.w3.org/1999/02/22-rdf-syntax-ns#"
   xmlns:svg="http://www.w3.org/2000/svg"
   xmlns="http://www.w3.org/2000/svg"
   xmlns:sodipodi="http://sodipodi.sourceforge.net/DTD/sodipodi-0.dtd"
   xmlns:inkscape="http://www.inkscape.org/namespaces/inkscape"
   width="165.99101mm"
   height="43.344063mm"
   viewBox="0 0 588.15713 153.58132"
   id="svg5334"
   version="1.1"
   inkscape:version="0.91 r13725"
   sodipodi:docname="logo.svg">
  <defs
     id="defs5336" />
  <sodipodi:namedview
     id="base"
     pagecolor="#ffffff"
     bordercolor="#666666"
     borderopacity="1.0"
     inkscape:pageopacity="0.0"
     inkscape:pageshadow="2"
     inkscape:zoom="0.35"
     inkscape:cx="-269.7829"
     inkscape:cy="-101.93857"
     inkscape:document-units="px"
     inkscape:current-layer="layer1"
     showgrid="true"
     inkscape:window-width="1366"
     inkscape:window-height="704"
     inkscape:window-x="0"
     inkscape:window-y="27"
     inkscape:window-maximized="1"
     fit-margin-top="1"
     fit-margin-left="1"
     fit-margin-right="1"
     fit-margin-bottom="1">
    <inkscape:grid
       type="xygrid"
       id="grid5571"
       originx="-34.630473"
       originy="-567.38478" />
  </sodipodi:namedview>
  <metadata
     id="metadata5339">
    <rdf:RDF>
      <cc:Work
         rdf:about="">
        <dc:format>image/svg+xml</dc:format>
        <dc:type
           rdf:resource="http://purl.org/dc/dcmitype/StillImage" />
        <dc:title></dc:title>
      </cc:Work>
    </rdf:RDF>
  </metadata>
  <g
     inkscape:label="Capa 1"
     inkscape:groupmode="layer"
     id="layer1"
     transform="translate(-34.630472,-331.39606)">
    <path
       d="m 111.31301,334.93937 c -13.898931,2.91366 -25.223811,14.12609 -27.581321,28.98624 -3.04654,19.22276 10.0723,37.28794 29.299011,40.33128 6.19398,0.97942 12.26985,0.28349 17.76003,-1.75434 -18.42447,-5.958 -30.07172,-26.60239 -26.56007,-48.77402 1.10985,-6.97408 3.59285,-13.34056 7.08235,-18.78916"
       style="fill:#ed1c24;fill-opacity:1;fill-rule:evenodd;stroke:none"
       id="path1122"
       inkscape:connector-curvature="0" />
    <path
       d="m 130.79073,402.50255 c -18.42447,-5.958 -30.07172,-26.60239 -26.56007,-48.77402 1.10985,-6.97408 3.59285,-13.34056 7.08235,-18.78916 -0.0344,0.008 -0.0713,0.0157 -0.10571,0.022 -7.07498,6.94726 -12.321531,16.94056 -14.159791,28.55362 -2.42887,15.32673 1.64385,29.80618 9.818831,39.19117 1.96869,0.68928 4.02843,1.21419 6.16445,1.55058 6.19399,0.97942 12.26986,0.28349 17.76004,-1.75434"
       style="fill:#af242c;fill-opacity:1;fill-rule:evenodd;stroke:none"
       id="path1124"
       inkscape:connector-curvature="0" />
    <path
       d="m 61.817729,364.68601 c -10.40452,14.03453 -11.67186,33.59666 -1.70292,49.18841 12.89245,20.17144 39.71091,26.0775 59.882581,13.18013 6.5016,-4.15369 11.52175,-9.7551 14.9079,-16.11594 -21.81307,9.56291 -49.387011,0.0856 -64.257991,-23.18671 -4.6781,-7.31638 -7.5893,-15.20271 -8.82957,-23.06589"
       style="fill:#99d420;fill-opacity:1;fill-rule:evenodd;stroke:none"
       id="path1126"
       inkscape:connector-curvature="0" />
    <path
       d="m 134.90529,410.93861 c -21.81307,9.56291 -49.387011,0.0856 -64.257991,-23.18671 -4.6781,-7.31638 -7.5893,-15.20271 -8.82957,-23.06589 -0.0272,0.0327 -0.0541,0.0721 -0.0813,0.11143 -0.83669,12.16404 2.50516,25.64191 10.29132,37.83105 10.27901,16.08099 25.8538,26.07724 41.032391,28.03363 2.37719,-0.97204 4.69778,-2.1754 6.93716,-3.60763 6.5016,-4.15367 11.52175,-9.75508 14.9079,-16.11591"
       style="fill:#00a650;fill-opacity:1;fill-rule:evenodd;stroke:none"
       id="path1128"
       inkscape:connector-curvature="0" />
    <path
       d="m 38.173779,432.75391 c 1.88994,21.40653 16.69694,40.43981 38.60106,46.64561 28.331881,8.03248 57.825301,-8.43609 65.855091,-36.76772 2.58882,-9.13202 2.63066,-18.39001 0.55369,-27.00597 -12.25755,26.61001 -45.363501,40.40535 -78.048651,31.14242 -10.27902,-2.91366 -19.3965,-7.79305 -26.96119,-14.01434"
       style="fill:#00adef;fill-opacity:1;fill-rule:evenodd;stroke:none"
       id="path1130"
       inkscape:connector-curvature="0" />
    <path
       d="m 143.18362,415.62583 c -12.25755,26.61001 -45.363501,40.40535 -78.048651,31.14242 -10.27902,-2.91366 -19.3965,-7.79305 -26.96119,-14.01434 0.008,0.052 0.01,0.11339 0.0197,0.16537 9.15932,11.87831 23.24283,21.55442 40.35811,26.40404 22.585781,6.39824 45.078041,2.8802 60.640521,-7.71407 1.39039,-2.83491 2.547,-5.83493 3.43783,-8.97745 2.58882,-9.13202 2.63066,-18.39001 0.55369,-27.00597"
       style="fill:#284ca5;fill-opacity:1;fill-rule:evenodd;stroke:none"
       id="path1132"
       inkscape:connector-curvature="0" />
    <flowRoot
       xml:space="preserve"
       id="flowRoot5541"
       style="font-style:normal;font-weight:normal;font-size:40px;line-height:125%;font-family:Sans;letter-spacing:0px;word-spacing:0px;fill:#000000;fill-opacity:1;stroke:none;stroke-width:1px;stroke-linecap:butt;stroke-linejoin:miter;stroke-opacity:1"><flowRegion
         id="flowRegion5543"><rect
           id="rect5545"
           width="523.25903"
           height="208.09143"
           x="171.72594"
           y="300.80872" /></flowRegion><flowPara
         id="flowPara5547" /></flowRoot>    <g
       transform="scale(1.0084209,0.9916494)"
       style="font-style:normal;font-variant:normal;font-weight:normal;font-stretch:normal;font-size:54.72657394px;line-height:125%;font-family:'DejaVu Sans';-inkscape-font-specification:'DejaVu Sans';text-align:start;letter-spacing:0px;word-spacing:0px;writing-mode:lr-tb;text-anchor:start;fill:#000000;fill-opacity:1;stroke:none;stroke-width:1px;stroke-linecap:butt;stroke-linejoin:miter;stroke-opacity:1"
       id="text5567">
      <path
         d="m 212.00123,430.69209 q -5.77194,2.80581 -11.9848,4.20871 -6.21285,1.4029 -12.82654,1.4029 -14.95094,0 -23.68902,-8.33725 -8.73808,-8.37734 -8.73808,-22.68695 0,-14.46994 8.89842,-22.76711 8.89841,-8.29717 24.37042,-8.29717 5.97236,0 11.42364,1.12233 5.49137,1.12232 10.3414,3.32688 l 0,12.38563 q -5.01037,-2.84589 -9.98065,-4.24879 -4.9302,-1.40291 -9.90049,-1.40291 -9.21907,0 -14.22944,5.1707 -4.97029,5.13062 -4.97029,14.71044 0,9.49966 4.80996,14.67036 4.80995,5.1707 13.66828,5.1707 2.40498,0 4.44921,-0.28058 2.08431,-0.32066 3.72771,-0.96199 l 0,-11.62405 -9.41949,0 0,-10.3414 24.04976,0 0,28.77955 z"
         style="font-style:normal;font-variant:normal;font-weight:bold;font-stretch:normal;font-size:82.08986664px;font-family:'DejaVu Sans';-inkscape-font-specification:'DejaVu Sans Bold';text-align:start;text-anchor:start;fill:#ffffff"
         id="path3351"
         inkscape:connector-curvature="0" />
      <path
         d="m 216.97152,375.29746 55.15412,0 0,11.66414 -19.84105,0 0,48.1797 -15.43193,0 0,-48.1797 -19.88114,0 0,-11.66414 z"
         style="font-style:normal;font-variant:normal;font-weight:bold;font-stretch:normal;font-size:82.08986664px;font-family:'DejaVu Sans';-inkscape-font-specification:'DejaVu Sans Bold';text-align:start;text-anchor:start;fill:#ffffff"
         id="path3353"
         inkscape:connector-curvature="0" />
      <path
         d="m 330.5265,401.83237 q 4.85004,0 6.93435,-1.80373 2.12439,-1.80373 2.12439,-5.93228 0,-4.08846 -2.12439,-5.85211 -2.08431,-1.76365 -6.93435,-1.76365 l -6.49344,0 0,15.35177 6.49344,0 z m -6.49344,10.66206 0,22.64687 -15.43193,0 0,-59.84384 23.56877,0 q 11.82447,0 17.31583,3.96821 5.53145,3.96822 5.53145,12.54597 0,5.93227 -2.88597,9.74015 -2.84589,3.80788 -8.61784,5.61161 3.16656,0.7215 5.6517,3.2868 2.52522,2.52523 5.09053,7.69593 l 8.37734,16.99517 -16.43401,0 -7.2951,-14.87078 q -2.20456,-4.48928 -4.48929,-6.13269 -2.24464,-1.6434 -6.01244,-1.6434 l -4.36904,0 z"
         style="font-style:normal;font-variant:normal;font-weight:bold;font-stretch:normal;font-size:82.08986664px;font-family:'DejaVu Sans';-inkscape-font-specification:'DejaVu Sans Bold';text-align:start;text-anchor:start;fill:#ffffff"
         id="path3355"
         inkscape:connector-curvature="0" />
      <path
         d="m 371.77185,375.29746 41.64617,0 0,11.66414 -26.21424,0 0,11.14306 24.65101,0 0,11.66413 -24.65101,0 0,13.70837 27.09607,0 0,11.66414 -42.528,0 0,-59.84384 z"
         style="font-style:normal;font-variant:normal;font-weight:bold;font-stretch:normal;font-size:82.08986664px;font-family:'DejaVu Sans';-inkscape-font-specification:'DejaVu Sans Bold';text-align:start;text-anchor:start;fill:#ffffff"
         id="path3357"
         inkscape:connector-curvature="0" />
      <path
         d="m 420.7532,375.29746 55.15413,0 0,11.66414 -19.84106,0 0,48.1797 -15.43193,0 0,-48.1797 -19.88114,0 0,-11.66414 z"
         style="font-style:normal;font-variant:normal;font-weight:bold;font-stretch:normal;font-size:82.08986664px;font-family:'DejaVu Sans';-inkscape-font-specification:'DejaVu Sans Bold';text-align:start;text-anchor:start;fill:#ffffff"
         id="path3359"
         inkscape:connector-curvature="0" />
      <path
         d="m 513.74562,424.23874 -24.12993,0 -3.80788,10.90256 -15.5121,0 22.16587,-59.84384 18.39807,0 22.16587,59.84384 -15.5121,0 -3.7678,-10.90256 z m -20.28197,-11.10298 16.39393,0 -8.17692,-23.80927 -8.21701,23.80927 z"
         style="font-style:normal;font-variant:normal;font-weight:bold;font-stretch:normal;font-size:82.08986664px;font-family:'DejaVu Sans';-inkscape-font-specification:'DejaVu Sans Bold';text-align:start;text-anchor:start;fill:#ffffff"
         id="path3361"
         inkscape:connector-curvature="0" />
      <path
         d="m 540.92187,375.29746 15.43193,0 0,59.84384 -15.43193,0 0,-59.84384 z"
         style="font-style:normal;font-variant:normal;font-weight:bold;font-stretch:normal;font-size:82.08986664px;font-family:'DejaVu Sans';-inkscape-font-specification:'DejaVu Sans Bold';text-align:start;text-anchor:start;fill:#ffffff"
         id="path3363"
         inkscape:connector-curvature="0" />
      <path
         d="m 571.54522,375.29746 15.43193,0 0,48.1797 27.09607,0 0,11.66414 -42.528,0 0,-59.84384 z"
         style="font-style:normal;font-variant:normal;font-weight:bold;font-stretch:normal;font-size:82.08986664px;font-family:'DejaVu Sans';-inkscape-font-specification:'DejaVu Sans Bold';text-align:start;text-anchor:start;fill:#ffffff"
         id="path3365"
         inkscape:connector-curvature="0" />
    </g>
    <flowRoot
       xml:space="preserve"
       id="flowRoot5814"
       style="font-style:normal;font-weight:normal;font-size:40px;line-height:125%;font-family:Sans;letter-spacing:0px;word-spacing:0px;fill:#000000;fill-opacity:1;stroke:none;stroke-width:1px;stroke-linecap:butt;stroke-linejoin:miter;stroke-opacity:1"><flowRegion
         id="flowRegion5816"><rect
           id="rect5818"
           width="450"
           height="120"
           x="30"
           y="502.36221" /></flowRegion><flowPara
         id="flowPara5820" /></flowRoot>  </g>
</svg>
