<?xml version="1.0" encoding="utf-8"?>
<!-- Generator: Adobe Illustrator 16.0.0, SVG Export Plug-In . SVG Version: 6.00 Build 0)  -->
<!DOCTYPE svg PUBLIC "-//W3C//DTD SVG 1.1//EN" "http://www.w3.org/Graphics/SVG/1.1/DTD/svg11.dtd">
<svg version="1.1" id="Layer_3" xmlns="http://www.w3.org/2000/svg" xmlns:xlink="http://www.w3.org/1999/xlink" x="0px" y="0px"
	 width="600px" height="600px" viewBox="0 0 600 600" enable-background="new 0 0 600 600" xml:space="preserve">
<g>
	<g>
		<path fill="#FFFFFF" d="M187.701,409.422V321H115v159.978c0,2.222,1.803,4.022,4.023,4.022H279v-72.701h-88.422
			C188.99,412.299,187.701,411.011,187.701,409.422z"/>
		<path fill="#FFFFFF" d="M187.701,279v-88.422c0-1.589,1.289-2.877,2.877-2.877h218.845c1.591,0,2.877,1.288,2.877,2.877v218.844
			c0,1.588-1.286,2.876-2.877,2.876h-88.422V485H480.98c2.222,0,4.021-1.801,4.021-4.023V119.022c0-2.225-1.801-4.022-4.021-4.022
			H119.024c-2.223,0-4.02,1.801-4.02,4.022V279H187.701z"/>
	</g>
	<path fill="#FFFFFF" d="M150.354,430.584c-9.832-9.832-11.785-23.815-4.365-31.235L277.51,267.828
		c7.42-7.42,21.402-5.467,31.233,4.363l17.891,17.893c9.83,9.83,11.785,23.812,4.364,31.232L199.477,452.838
		c-7.418,7.419-21.404,5.467-31.234-4.363L150.354,430.584z"/>
</g>
</svg>
