<?xml version="1.0" encoding="utf-8"?>
<!-- Generator: Adobe Illustrator 16.0.0, SVG Export Plug-In . SVG Version: 6.00 Build 0)  -->
<!DOCTYPE svg PUBLIC "-//W3C//DTD SVG 1.1//EN" "http://www.w3.org/Graphics/SVG/1.1/DTD/svg11.dtd">
<svg version="1.1" id="Layer_3" xmlns="http://www.w3.org/2000/svg" xmlns:xlink="http://www.w3.org/1999/xlink" x="0px" y="0px"
	 width="600px" height="600px" viewBox="0 0 600 600" enable-background="new 0 0 600 600" xml:space="preserve">
<g>
	<path fill="#525252" d="M448.033,151.967c-49.288-49.29-129.482-49.29-178.772,0l-9.368,9.369l178.772,178.777l9.368-9.371
		C497.322,281.453,497.322,201.255,448.033,151.967z"/>
	<path fill="#525252" d="M263.918,362.26c-7.229,7.223-18.942,7.223-26.172,0c-7.229-7.23-7.229-18.949,0-26.174l69.453-69.455
		l-76.304-76.302l-88.066,88.07c-3.573,3.573-5.86,8.237-6.492,13.253l-21.156,167.721c-0.886,6.979,1.519,13.979,6.489,18.955
		c4.978,4.977,11.976,7.373,18.958,6.492l167.724-21.158c5.016-0.635,9.678-2.916,13.253-6.49l88.07-88.074l-76.3-76.299
		L263.918,362.26z M162.45,445.691c-2.234,0.278-4.473-0.486-6.065-2.076c-1.593-1.597-2.36-3.832-2.079-6.068l6.771-53.67
		l55.036,55.043L162.45,445.691z"/>
</g>
</svg>
